<svg width="24" height="24" viewBox="0 0 24 24" fill="none" xmlns="http://www.w3.org/2000/svg">
<path d="M23.6436 4.26914L20.6996 3.28714L19.7176 0.342136C19.6901 0.259499 19.6415 0.185478 19.5766 0.127402C19.5117 0.0693258 19.4328 0.0292086 19.3476 0.0110226C19.2624 -0.00716344 19.174 -0.00278739 19.091 0.0237174C19.008 0.0502223 18.9335 0.0979365 18.8746 0.162136L16.1166 3.16214C16.0322 3.25445 15.9855 3.37505 15.9856 3.50014V6.94014L14.7856 8.13414C13.0721 6.69055 10.8814 5.93866 8.64257 6.02573C6.40373 6.1128 4.27804 7.03255 2.68184 8.60485C1.08564 10.1772 0.133925 12.2887 0.013095 14.526C-0.107735 16.7633 0.611025 18.9651 2.0286 20.7001L0.700602 22.3801C0.540133 22.5885 0.468235 22.8518 0.500483 23.1128C0.532731 23.3739 0.666528 23.6117 0.872889 23.7748C1.07925 23.9379 1.34156 24.0131 1.60299 23.9841C1.86442 23.9552 2.10392 23.8244 2.2696 23.6201L3.4696 22.0991C5.0792 23.357 7.07011 24.0274 9.11271 23.9994C11.1553 23.9714 13.1271 23.2466 14.7016 21.9451L16.2356 23.6651C16.4139 23.8601 16.6613 23.9777 16.9251 23.9928C17.1889 24.008 17.4482 23.9194 17.6476 23.7461C17.8454 23.5698 17.9652 23.3222 17.9806 23.0576C17.996 22.793 17.9057 22.5332 17.7296 22.3351L16.0956 20.5001C17.2229 19.0525 17.8785 17.2936 17.9736 15.4613C18.0688 13.629 17.5989 11.8117 16.6276 10.2551C16.6068 10.2225 16.579 10.1951 16.5461 10.1747C16.5132 10.1544 16.4762 10.1417 16.4377 10.1377C16.3993 10.1337 16.3604 10.1383 16.324 10.1514C16.2877 10.1645 16.2547 10.1856 16.2276 10.2131L14.5856 11.8591C14.5489 11.8956 14.5249 11.9429 14.5172 11.994C14.5094 12.0452 14.5183 12.0975 14.5426 12.1431C15.2544 13.5197 15.4321 15.1109 15.0416 16.6106C14.6512 18.1103 13.72 19.4127 12.4273 20.2674C11.1346 21.1221 9.57151 21.4687 8.03868 21.2405C6.50584 21.0124 5.11146 20.2257 4.12364 19.0316C3.13583 17.8375 2.62434 16.3203 2.68751 14.7719C2.75068 13.2235 3.38407 11.7531 4.46587 10.6434C5.54767 9.53377 7.00151 8.86322 8.54784 8.76072C10.0942 8.65821 11.6238 9.13099 12.8426 10.0881L11.7676 11.1631C11.225 10.7635 10.6028 10.4852 9.94314 10.3472C9.28352 10.2092 8.60194 10.2146 7.9446 10.3631C7.11942 10.5495 6.35896 10.9528 5.74178 11.5313C5.12461 12.1099 4.6731 12.8427 4.43392 13.6542C4.19474 14.4656 4.17656 15.3262 4.38125 16.147C4.58595 16.9679 5.00609 17.7191 5.59828 18.3233C6.19047 18.9274 6.93322 19.3624 7.74979 19.5834C8.56637 19.8045 9.42715 19.8034 10.2432 19.5805C11.0592 19.3575 11.801 18.9207 12.3917 18.3152C12.9825 17.7097 13.4009 16.9574 13.6036 16.1361C13.8224 15.2525 13.7804 14.3244 13.4826 13.4641C13.4674 13.4248 13.4427 13.3898 13.4105 13.3626C13.3784 13.3353 13.3399 13.3165 13.2986 13.3079C13.2573 13.2994 13.2145 13.3013 13.1741 13.3136C13.1338 13.3258 13.0971 13.348 13.0676 13.3781L10.9076 15.5371C10.796 15.9253 10.5688 16.2702 10.2565 16.5262C9.94409 16.7822 9.56121 16.9371 9.15871 16.9703C8.75621 17.0034 8.35314 16.9134 8.00304 16.712C7.65295 16.5107 7.3724 16.2076 7.19868 15.843C7.02495 15.4784 6.96627 15.0696 7.03043 14.6708C7.09459 14.2721 7.27856 13.9023 7.55788 13.6106C7.83721 13.3189 8.19868 13.1191 8.59427 13.0378C8.98985 12.9564 9.40083 12.9974 9.7726 13.1551L8.5856 14.3401C8.51591 14.4098 8.46062 14.4925 8.4229 14.5835C8.38518 14.6745 8.36576 14.7721 8.36576 14.8706C8.36576 14.9692 8.38518 15.0667 8.4229 15.1578C8.46062 15.2488 8.51591 15.3315 8.5856 15.4011C8.72802 15.5386 8.9182 15.6153 9.1161 15.6153C9.31401 15.6153 9.50419 15.5386 9.6466 15.4011L17.0456 8.00014H20.4856C20.6112 8.00026 20.7322 7.95314 20.8246 7.86814L23.8246 5.11214C23.8888 5.05327 23.9365 4.97867 23.963 4.8957C23.9894 4.81274 23.9938 4.7243 23.9756 4.63914C23.9573 4.55387 23.9171 4.47486 23.8588 4.40995C23.8006 4.34505 23.7264 4.2965 23.6436 4.26914Z" fill="white"/>
</svg>
