<svg width="24" height="31" viewBox="0 0 24 31" fill="none" xmlns="http://www.w3.org/2000/svg">
<path fill-rule="evenodd" clip-rule="evenodd" d="M0 30.6667V12.6667C0 11.194 1.194 10 2.66667 10V7.33333C2.66667 6.59733 3.264 6 4 6H5.33333V0.666667C5.33333 0.298667 5.63133 0 6 0C6.36867 0 6.66667 0.298667 6.66667 0.666667V6H8C8.736 6 9.33333 6.59733 9.33333 7.33333V10C10.806 10 12 11.194 12 12.6667V18H16.6667V14H19.3333V12H23.3333V14H24V30.6667H0ZM8 8C8 7.632 7.702 7.33333 7.33333 7.33333H4.66667C4.298 7.33333 4 7.632 4 8V10H8V8ZM10.6667 12.6667C10.6667 11.9307 10.0693 11.3333 9.33333 11.3333H2.66667C1.93067 11.3333 1.33333 11.9307 1.33333 12.6667V29.3333H10.6667V12.6667ZM16.6667 19.3333H12V29.3333H16.6667V19.3333ZM22.6667 15.3333H18V29.3333H22.6667V15.3333ZM20 17.3333H20.6667C21.0353 17.3333 21.3333 17.6313 21.3333 18V18.6667C21.3333 19.0353 21.0353 19.3333 20.6667 19.3333H20C19.6313 19.3333 19.3333 19.0353 19.3333 18.6667V18C19.3333 17.6313 19.6313 17.3333 20 17.3333ZM20 21.3333H20.6667C21.0353 21.3333 21.3333 21.6313 21.3333 22V22.6667C21.3333 23.0353 21.0353 23.3333 20.6667 23.3333H20C19.6313 23.3333 19.3333 23.0353 19.3333 22.6667V22C19.3333 21.6313 19.6313 21.3333 20 21.3333ZM20 25.3333H20.6667C21.0353 25.3333 21.3333 25.6313 21.3333 26V26.6667C21.3333 27.0353 21.0353 27.3333 20.6667 27.3333H20C19.6313 27.3333 19.3333 27.0353 19.3333 26.6667V26C19.3333 25.6313 19.6313 25.3333 20 25.3333ZM14 21.3333H14.6667C15.0353 21.3333 15.3333 21.6313 15.3333 22V22.6667C15.3333 23.0353 15.0353 23.3333 14.6667 23.3333H14C13.6313 23.3333 13.3333 23.0353 13.3333 22.6667V22C13.3333 21.6313 13.6313 21.3333 14 21.3333ZM14 25.3333H14.6667C15.0353 25.3333 15.3333 25.6313 15.3333 26V26.6667C15.3333 27.0353 15.0353 27.3333 14.6667 27.3333H14C13.6313 27.3333 13.3333 27.0353 13.3333 26.6667V26C13.3333 25.6313 13.6313 25.3333 14 25.3333ZM8 27.3333H7.33333C6.96467 27.3333 6.66667 27.0353 6.66667 26.6667V26C6.66667 25.632 6.96467 25.3333 7.33333 25.3333H8C8.36867 25.3333 8.66667 25.632 8.66667 26V26.6667C8.66667 27.0353 8.36867 27.3333 8 27.3333ZM8 23.3333H7.33333C6.96467 23.3333 6.66667 23.0353 6.66667 22.6667V22C6.66667 21.632 6.96467 21.3333 7.33333 21.3333H8C8.36867 21.3333 8.66667 21.632 8.66667 22V22.6667C8.66667 23.0353 8.36867 23.3333 8 23.3333ZM8 19.3333H7.33333C6.96467 19.3333 6.66667 19.0353 6.66667 18.6667V18C6.66667 17.632 6.96467 17.3333 7.33333 17.3333H8C8.36867 17.3333 8.66667 17.632 8.66667 18V18.6667C8.66667 19.0353 8.36867 19.3333 8 19.3333ZM8 15.3333H7.33333C6.96467 15.3333 6.66667 15.0353 6.66667 14.6667V14C6.66667 13.632 6.96467 13.3333 7.33333 13.3333H8C8.36867 13.3333 8.66667 13.632 8.66667 14V14.6667C8.66667 15.0353 8.36867 15.3333 8 15.3333ZM4.66667 27.3333H4C3.63133 27.3333 3.33333 27.0353 3.33333 26.6667V26C3.33333 25.6313 3.63133 25.3333 4 25.3333H4.66667C5.03533 25.3333 5.33333 25.6313 5.33333 26V26.6667C5.33333 27.0353 5.03533 27.3333 4.66667 27.3333ZM4.66667 23.3333H4C3.63133 23.3333 3.33333 23.0353 3.33333 22.6667V22C3.33333 21.6313 3.63133 21.3333 4 21.3333H4.66667C5.03533 21.3333 5.33333 21.6313 5.33333 22V22.6667C5.33333 23.0353 5.03533 23.3333 4.66667 23.3333ZM4.66667 19.3333H4C3.63133 19.3333 3.33333 19.0353 3.33333 18.6667V18C3.33333 17.632 3.63133 17.3333 4 17.3333H4.66667C5.03533 17.3333 5.33333 17.632 5.33333 18V18.6667C5.33333 19.0353 5.03533 19.3333 4.66667 19.3333ZM4.66667 15.3333H4C3.63133 15.3333 3.33333 15.0353 3.33333 14.6667V14C3.33333 13.632 3.63133 13.3333 4 13.3333H4.66667C5.03533 13.3333 5.33333 13.632 5.33333 14V14.6667C5.33333 15.0353 5.03533 15.3333 4.66667 15.3333Z" fill="#464646"/>
</svg>
