<svg width="35" height="24" viewBox="0 0 35 24" fill="none" xmlns="http://www.w3.org/2000/svg">
<path d="M19.8938 13.875V13.8L19.4438 7.8C19.4313 7.6375 19.3625 7.49688 19.2375 7.37813C19.1125 7.25938 18.9688 7.2 18.8063 7.2H15.3188C15.1563 7.2 15.0125 7.25938 14.8875 7.37813C14.7625 7.49688 14.6938 7.6375 14.6813 7.8L14.2313 13.8V13.875C14.2188 14.025 14.2688 14.15 14.3813 14.25C14.4938 14.35 14.625 14.4 14.775 14.4H19.35C19.5 14.4 19.6313 14.35 19.7438 14.25C19.8563 14.15 19.9062 14.025 19.8938 13.875ZM34.125 22.6313C34.125 23.5438 33.8375 24 33.2625 24H20.0625C20.225 24 20.3625 23.9406 20.475 23.8219C20.5875 23.7031 20.6375 23.5625 20.625 23.4L20.25 18.6C20.2375 18.4375 20.1688 18.2969 20.0438 18.1781C19.9188 18.0594 19.775 18 19.6125 18H14.5125C14.35 18 14.2063 18.0594 14.0813 18.1781C13.9563 18.2969 13.8875 18.4375 13.875 18.6L13.5 23.4C13.4875 23.5625 13.5375 23.7031 13.65 23.8219C13.7625 23.9406 13.9 24 14.0625 24H0.8625C0.2875 24 0 23.5438 0 22.6313C0 21.9563 0.1625 21.2313 0.4875 20.4563L8.30625 0.88125C8.40625 0.64375 8.56875 0.4375 8.79375 0.2625C9.01875 0.0875 9.25625 0 9.50625 0H15.8625C15.7 0 15.5563 0.059375 15.4313 0.178125C15.3063 0.296875 15.2375 0.4375 15.225 0.6L14.9438 4.2C14.9313 4.375 14.9813 4.51875 15.0938 4.63125C15.2063 4.74375 15.3438 4.8 15.5063 4.8H18.6188C18.7812 4.8 18.9188 4.74375 19.0312 4.63125C19.1438 4.51875 19.1938 4.375 19.1813 4.2L18.9 0.6C18.8875 0.4375 18.8188 0.296875 18.6938 0.178125C18.5688 0.059375 18.425 0 18.2625 0H24.6188C24.8688 0 25.1063 0.0875 25.3313 0.2625C25.5563 0.4375 25.7188 0.64375 25.8188 0.88125L33.6375 20.4563C33.9625 21.2313 34.125 21.9563 34.125 22.6313Z" fill="#464646"/>
</svg>
